<svg xmlns="http://www.w3.org/2000/svg" viewBox="0 0 120 140">
<g fill="#3ECFB2" fill-opacity="0.85" stroke="#0C1220" stroke-width="0.4">
<path d="M33.5,156.3L33.9,157.0L33.7,157.4L33.3,157.3L33.1,157.0L33.5,156.3Z M29.0,155.1L29.5,155.4L30.2,155.3L30.3,155.7L31.0,156.3L31.3,156.1L32.1,156.3L32.5,157.0L32.2,157.5L32.4,157.9L33.0,157.9L33.1,158.2L32.7,158.5L32.3,159.9L32.2,160.4L31.8,160.5L31.4,161.0L31.3,161.5L30.6,162.1L30.8,162.3L30.4,162.8L29.7,163.1L29.0,162.9L28.1,163.8L27.8,163.7L26.8,164.0L25.9,164.0L25.5,164.1L24.9,164.9L24.4,165.0L24.1,164.8L23.1,165.0L22.4,164.9L22.1,165.2L21.6,165.2L21.1,165.4L20.6,164.9L20.1,165.1L19.6,164.8L18.9,165.2L17.3,165.0L16.7,165.4L16.6,165.9L16.1,166.3L15.5,165.7L15.1,165.1L14.2,164.7L13.8,164.3L13.2,163.3L13.4,163.1L13.2,162.4L13.4,161.7L14.0,161.2L14.6,160.8L14.8,160.4L15.2,160.2L15.8,159.6L15.8,159.1L16.9,158.6L17.0,158.1L17.7,158.1L19.0,157.4L19.2,157.6L21.4,156.8L21.7,156.4L22.2,156.6L22.9,156.2L23.1,156.5L23.9,156.3L24.3,156.0L25.3,155.9L25.5,155.4L25.9,155.5L27.4,155.4L27.6,155.3L28.4,155.3L29.0,155.1Z"/><path d="M66.1,122.6L66.8,122.7L67.1,123.5L66.2,123.4L65.8,123.0L66.1,122.6Z M64.5,120.7L65.1,120.9L65.2,121.4L64.7,121.4L64.5,120.7Z M72.4,117.6L72.6,118.6L73.0,119.1L72.6,119.4L72.1,119.3L72.1,118.8L71.8,118.5L72.4,117.6Z M66.1,116.9L66.8,117.5L66.3,118.1L65.5,117.9L65.1,117.4L65.6,116.9L66.1,116.9Z M65.0,116.3L65.4,116.5L65.0,117.2L64.7,117.3L64.3,116.8L64.4,116.5L65.0,116.3Z M60.9,114.5L61.0,115.1L61.8,116.0L61.6,116.7L61.7,117.2L60.7,116.7L60.6,116.9L59.7,117.0L59.3,116.8L59.1,116.0L59.5,115.7L60.0,114.8L60.2,114.5L60.9,114.5Z M57.4,113.7L58.0,113.9L58.3,114.7L58.1,115.1L57.5,115.9L58.1,117.2L58.6,117.3L58.9,117.9L59.8,117.1L60.9,117.2L61.6,117.4L61.6,118.1L61.4,118.2L61.5,119.7L60.7,120.5L60.4,120.4L59.7,120.8L58.9,120.8L58.7,120.1L58.8,118.8L58.2,118.8L57.6,119.1L57.8,120.0L57.2,120.4L56.7,120.3L56.4,119.8L55.9,119.6L56.3,119.0L55.9,118.0L55.3,117.1L55.1,116.4L55.6,115.9L55.7,115.2L56.2,115.0L56.4,114.3L56.8,113.8L57.4,113.7Z M77.4,110.9L77.7,111.2L78.2,111.1L78.4,111.5L77.9,111.9L77.8,112.7L78.6,113.7L78.4,114.0L78.5,114.6L78.3,115.1L77.8,115.4L78.2,115.8L78.8,115.4L79.0,116.1L77.9,116.9L78.9,118.3L78.1,118.3L78.1,117.7L77.7,117.9L77.2,117.7L77.0,118.3L77.2,118.5L76.3,119.2L76.7,119.8L77.1,119.7L77.5,120.0L75.9,120.1L76.2,120.5L75.6,121.1L74.8,120.6L75.4,120.3L75.5,120.0L74.7,119.9L74.4,119.1L73.9,118.8L73.8,118.4L74.8,118.3L74.9,118.0L75.0,117.1L74.8,116.5L73.9,117.1L73.2,117.8L72.8,117.1L72.3,116.9L72.1,115.8L72.7,114.9L73.2,114.8L73.5,114.4L74.0,114.8L74.9,114.7L75.3,115.1L75.6,115.1L75.3,114.0L75.0,113.7L75.8,113.2L76.5,113.2L76.6,112.7L75.9,112.5L76.1,111.8L76.5,111.5L76.7,112.5L77.0,111.9L77.4,110.9Z M69.5,93.8L69.8,93.9L71.0,93.4L71.4,92.9L72.4,93.0L72.9,92.9L73.0,91.9L73.5,91.6L73.7,92.5L73.7,93.4L74.3,93.6L74.9,94.5L75.5,94.7L76.8,94.2L77.7,94.3L78.0,94.7L78.5,94.7L79.4,95.1L80.1,95.1L80.4,94.4L81.3,94.2L81.8,94.2L82.3,93.5L83.3,93.0L83.9,93.1L85.0,93.9L85.6,93.5L86.0,93.6L86.2,94.1L86.0,94.6L85.4,95.0L84.8,95.3L85.4,96.2L86.1,96.3L88.2,97.2L88.3,97.7L89.1,98.6L89.6,99.0L90.0,99.1L90.5,98.9L91.1,99.8L90.7,100.5L90.4,101.3L90.0,101.5L89.3,101.2L88.8,101.7L88.4,102.8L87.8,103.0L87.4,103.4L87.0,103.2L86.8,103.7L85.8,103.9L85.5,105.1L83.6,105.6L82.6,105.7L82.2,106.0L82.5,106.6L82.1,107.1L81.5,107.4L80.3,107.4L80.5,107.8L81.2,108.2L81.5,108.9L80.5,109.4L79.9,109.0L78.7,109.3L78.0,109.0L77.6,107.6L76.9,108.2L76.2,107.6L75.7,107.7L75.2,106.9L75.0,105.8L74.4,106.6L75.4,108.1L75.4,109.0L75.9,109.4L76.3,110.1L75.4,110.4L74.8,110.5L74.3,110.0L74.3,109.6L73.7,108.7L73.3,109.2L72.5,108.9L72.0,109.2L71.8,109.9L71.3,109.9L70.9,110.4L70.5,110.2L69.7,110.6L70.0,111.0L71.4,110.5L71.5,110.0L72.3,110.2L72.1,110.9L72.9,111.7L72.2,112.3L71.8,112.5L71.2,112.3L71.3,113.2L71.0,113.4L71.1,114.1L70.8,115.3L71.0,115.8L71.5,114.6L72.0,115.5L71.7,115.8L71.6,116.7L70.8,117.1L71.3,117.3L71.3,118.0L71.1,118.7L70.9,119.1L70.4,119.2L70.0,118.4L69.6,118.2L69.7,117.6L68.7,117.2L69.2,116.9L69.6,117.3L69.7,116.5L70.1,116.2L69.6,115.7L69.3,116.0L68.3,115.6L67.7,115.0L67.9,114.8L69.1,114.8L68.9,114.1L68.6,113.8L67.7,114.0L67.7,114.7L67.3,115.0L66.8,114.7L66.9,114.1L66.2,113.8L65.0,114.0L65.2,114.4L65.1,114.7L65.2,115.3L64.6,115.2L63.2,115.0L62.0,114.4L61.5,114.2L60.8,113.4L61.4,112.7L61.0,112.1L61.3,111.6L60.7,111.1L60.3,111.4L60.5,111.9L60.4,112.3L59.8,112.4L59.6,112.8L59.1,112.5L58.7,112.8L58.3,112.3L58.2,111.7L57.6,113.0L57.6,113.3L56.9,113.7L55.9,113.6L54.6,113.9L54.1,112.9L54.4,112.4L54.6,111.6L54.3,111.2L54.2,110.6L53.4,110.2L53.4,109.7L52.9,109.6L52.3,109.0L52.3,108.2L50.4,106.5L50.3,105.0L50.1,104.2L49.8,104.0L49.3,102.8L49.7,102.7L50.4,102.1L50.5,101.8L50.1,101.1L50.9,99.9L51.5,99.6L51.6,98.6L51.0,98.6L50.8,98.2L50.8,97.7L51.2,97.5L50.5,96.4L50.5,96.1L49.6,95.5L49.6,95.1L50.1,94.5L50.2,93.9L50.6,93.5L50.4,92.8L50.6,92.2L50.9,92.0L51.0,91.1L51.4,90.8L51.4,89.3L52.4,88.4L52.9,88.2L53.6,86.8L54.3,86.9L54.7,86.5L55.2,86.5L55.8,86.0L56.0,86.1L56.3,85.4L57.2,84.7L57.1,85.3L57.3,85.5L57.9,85.3L58.3,85.7L58.3,86.4L58.8,86.3L59.3,86.6L59.7,86.4L60.0,87.0L60.4,87.2L60.9,87.0L61.3,87.2L61.8,86.9L63.2,87.4L63.2,88.0L63.3,88.4L63.9,88.5L64.2,89.2L64.8,89.5L65.2,90.4L65.2,91.6L64.6,91.9L64.2,91.9L64.2,92.5L64.8,92.4L65.2,92.8L66.1,92.9L66.3,92.4L66.7,92.8L67.1,92.5L67.8,92.4L69.1,92.8L69.5,93.8Z"/><path d="M97.0,92.6L96.0,92.2L94.5,91.7L93.2,92.6L92.1,92.5L92.0,92.1L92.2,91.3L92.0,91.0L91.5,91.0L90.8,90.4L89.6,90.6L89.2,90.3L89.0,90.7L87.8,91.0L87.3,91.7L87.2,92.3L87.4,92.9L86.7,92.6L85.0,93.9L83.9,93.1L83.3,93.0L82.3,93.5L81.8,94.2L81.3,94.2L80.4,94.4L80.1,95.1L79.4,95.1L78.5,94.7L78.0,94.7L77.7,94.3L76.8,94.2L75.5,94.7L74.9,94.5L74.3,93.6L73.7,93.4L73.7,92.5L73.5,91.6L73.9,90.5L74.8,89.9L75.8,90.0L75.6,90.3L75.9,91.0L76.3,90.9L77.0,90.5L77.5,90.4L77.7,90.1L77.8,89.4L77.4,88.4L78.3,87.9L78.1,87.3L79.2,86.4L79.5,85.6L79.3,84.6L78.9,84.2L79.0,83.8L78.9,83.4L79.0,83.0L78.7,82.5L78.5,81.9L77.6,81.6L75.8,81.9L75.1,82.7L74.2,83.0L73.5,82.8L73.7,83.9L73.4,84.6L72.6,85.2L72.2,85.2L72.0,84.9L72.2,84.0L71.3,84.0L70.7,84.5L70.3,85.4L69.9,86.1L70.0,86.6L70.8,86.6L71.8,86.9L72.2,87.3L72.0,87.8L70.8,87.8L70.4,88.2L69.9,89.2L70.1,89.7L71.1,90.3L71.1,91.0L70.7,91.3L69.2,90.9L69.0,91.0L69.1,91.7L69.8,92.4L70.3,92.8L69.9,93.7L69.5,93.8L69.1,92.8L67.8,92.4L67.1,92.5L66.7,92.8L66.3,92.4L66.1,92.9L65.2,92.8L64.8,92.4L64.2,92.5L64.2,91.9L64.6,91.9L65.2,91.6L65.2,90.4L64.8,89.5L64.2,89.2L63.9,88.5L63.3,88.4L63.2,88.0L63.2,87.4L61.8,86.9L61.3,87.2L60.9,87.0L60.4,87.2L60.0,87.0L59.7,86.4L59.3,86.6L58.8,86.3L58.3,86.4L58.3,85.7L57.9,85.3L57.3,85.5L57.1,85.3L57.2,84.7L57.1,84.3L57.7,83.9L57.4,82.5L56.9,82.2L56.9,81.4L57.6,80.9L57.9,80.5L58.4,80.6L59.1,80.0L59.0,79.2L59.2,78.5L59.7,78.2L59.9,77.5L59.4,76.4L59.7,76.1L60.4,75.8L61.0,76.3L61.4,76.1L61.3,75.6L60.8,74.9L61.2,74.4L60.3,73.9L59.6,74.2L59.2,74.6L58.8,74.4L58.3,73.7L57.3,73.3L57.0,73.8L56.3,73.8L56.0,72.8L56.3,72.2L57.0,71.7L57.3,71.4L56.8,69.9L57.1,69.4L56.8,69.0L57.1,68.3L57.0,67.7L57.7,66.9L57.5,66.3L56.8,65.9L56.8,65.4L56.5,65.0L55.6,65.0L54.9,64.3L55.6,63.7L56.2,63.7L56.2,63.1L56.6,63.0L56.8,62.4L57.2,63.2L58.3,63.5L58.5,62.6L58.3,62.1L57.2,61.3L58.3,61.3L58.3,60.9L58.7,60.5L59.1,60.0L59.7,60.6L60.1,60.6L60.6,60.3L61.3,60.8L61.9,60.9L61.8,60.4L60.9,59.7L61.5,58.3L61.5,57.6L62.2,58.0L62.8,57.9L62.9,57.5L63.6,57.1L64.3,57.5L65.6,57.6L65.5,56.6L66.0,56.7L66.2,55.9L67.3,56.4L67.6,57.1L68.2,57.6L68.6,57.6L69.4,58.1L69.8,57.7L70.8,57.7L71.5,56.6L71.5,56.2L70.9,55.8L71.3,55.0L71.3,54.2L71.8,54.1L71.8,53.7L73.1,52.8L73.2,52.5L73.9,52.3L74.6,51.6L74.4,51.1L74.9,50.8L76.1,50.9L76.7,50.1L77.6,50.5L77.9,50.9L78.8,50.9L79.2,51.2L79.4,51.0L79.2,50.4L79.5,50.2L80.0,49.5L80.6,49.8L81.1,49.7L81.6,50.5L82.3,50.7L82.9,50.7L83.5,49.3L84.1,49.2L84.5,49.8L85.1,49.6L87.2,50.1L87.5,49.3L88.0,49.1L89.1,49.6L90.5,50.9L91.4,50.7L91.3,49.9L91.9,49.2L92.3,49.0L92.4,48.6L93.0,48.7L93.3,48.2L94.2,47.7L94.8,47.7L95.2,48.5L95.2,49.1L95.8,49.8L96.4,50.2L96.1,50.5L96.0,51.4L96.2,51.9L95.9,52.7L96.2,53.5L96.2,55.2L96.1,55.4L96.4,56.6L97.2,57.6L97.3,58.4L97.7,59.0L97.4,59.3L97.7,60.1L97.5,60.4L97.6,61.1L97.3,61.5L96.6,62.0L96.0,63.4L96.0,64.2L96.3,65.0L96.7,65.5L96.9,67.0L96.6,67.6L96.7,68.2L96.6,69.2L96.3,69.9L95.6,71.1L95.2,72.1L95.3,72.4L95.1,73.4L95.2,73.9L95.0,74.5L95.3,74.9L95.3,75.7L95.0,75.9L95.1,76.4L95.5,76.7L95.7,77.2L95.6,78.0L96.7,79.1L96.2,79.4L96.2,79.8L95.2,80.3L95.1,80.6L95.3,81.2L96.1,81.7L96.4,82.2L97.0,82.3L97.6,81.7L98.3,81.3L98.3,81.0L99.1,80.4L99.4,79.5L100.0,79.8L100.4,81.5L100.3,81.8L99.7,82.4L99.6,83.1L99.1,84.0L98.7,84.3L98.9,84.9L98.7,85.9L98.9,86.2L98.5,87.4L98.6,87.6L98.0,88.5L98.2,88.9L97.9,90.2L97.6,91.0L97.6,91.5L97.0,92.6Z M134.0,35.6L134.1,36.2L134.4,36.7L134.2,37.6L132.9,38.3L132.1,38.1L131.4,37.6L131.4,37.0L131.1,36.7L132.5,36.0L133.7,35.8L134.0,35.6Z"/><path d="M32.8,142.5L32.9,143.0L32.5,143.0L32.3,142.6L32.8,142.5Z M42.1,140.2L42.3,141.7L41.8,141.1L41.8,140.6L42.1,140.2Z M-13.9,139.2L-13.5,139.2L-13.2,139.8L-12.6,140.5L-12.9,140.7L-13.4,140.6L-13.5,140.2L-13.9,140.0L-13.9,139.2Z M23.1,136.7L23.5,137.0L24.0,137.0L23.8,137.8L23.1,138.3L22.5,138.5L22.0,138.0L22.3,137.0L22.9,136.6L23.1,136.7Z M26.0,136.2L26.5,136.5L26.2,137.2L26.5,137.9L26.0,138.8L25.3,138.2L25.1,137.7L25.6,137.1L25.3,136.7L25.7,136.1L26.0,136.2Z M28.6,135.7L28.7,136.4L28.2,136.5L28.6,135.7Z M31.9,135.6L32.7,136.9L32.4,137.5L31.6,137.6L30.7,136.9L31.3,135.8L31.9,135.6Z M23.6,135.1L24.3,135.3L24.8,135.6L25.1,136.0L24.7,136.2L24.8,136.7L24.1,136.9L23.4,136.7L23.1,136.4L23.5,135.5L23.6,135.1Z M41.1,134.6L41.3,135.3L41.1,135.8L40.4,135.6L40.5,135.0L41.1,134.6Z M24.9,134.6L25.1,134.9L24.2,135.1L24.5,134.6L24.9,134.6Z M10.2,132.5L10.5,133.0L11.2,132.9L11.5,133.8L11.0,133.6L10.5,133.9L10.4,133.6L9.9,133.6L9.7,133.0L10.2,132.5Z M34.2,131.9L35.0,132.1L34.7,132.7L33.9,133.1L33.5,132.7L33.5,132.2L34.2,131.9Z M9.9,131.9L10.5,132.1L10.1,132.4L9.9,131.9Z M30.5,131.5L30.7,131.7L31.3,131.6L31.5,132.0L32.0,132.1L31.6,132.8L31.2,132.6L30.7,133.1L30.3,132.4L29.7,132.3L29.5,132.5L29.0,132.3L29.2,131.7L29.6,132.1L30.0,131.6L30.5,131.5Z M35.5,130.8L36.0,131.3L36.9,131.3L37.1,132.0L36.7,132.0L35.9,132.2L34.8,131.3L34.9,130.8L35.5,130.8Z M26.6,130.0L27.0,130.1L27.8,130.8L27.7,131.2L28.2,132.4L28.8,132.7L28.5,133.3L27.8,133.5L27.4,133.2L26.8,133.3L26.4,132.7L25.7,132.1L25.4,130.6L25.6,130.3L26.6,130.0Z M33.2,129.7L33.3,130.0L32.9,131.0L32.5,131.4L31.1,130.9L31.3,130.3L31.7,130.0L32.2,130.0L32.8,130.4L33.2,129.7Z M40.9,129.7L41.2,130.0L41.5,130.7L41.0,130.5L41.0,130.0L40.9,129.7Z M30.4,128.8L30.7,129.2L31.2,130.4L30.4,130.6L29.3,130.7L28.8,131.5L28.6,131.3L28.9,130.6L28.4,130.5L28.6,129.9L29.2,129.1L29.5,129.1L30.4,128.8Z M35.8,128.4L36.3,128.5L36.5,129.2L36.3,130.0L35.5,129.4L35.4,128.6L35.8,128.4Z M55.1,128.3L55.2,128.7L55.2,129.6L54.6,129.6L54.9,128.5L55.1,128.3Z M46.4,127.9L47.4,128.2L47.5,128.0L48.3,128.6L48.2,129.2L47.1,129.7L47.1,129.1L46.4,128.9L46.2,128.4L46.4,127.9Z M40.3,127.3L40.6,127.8L40.0,129.1L39.4,129.2L38.9,129.0L38.3,129.2L37.8,129.2L37.1,128.1L37.8,127.4L38.1,127.9L38.6,127.7L39.4,127.3L39.7,127.4L40.3,127.3Z M10.6,127.2L11.0,127.7L10.2,128.4L10.1,127.7L10.6,127.2Z M38.1,126.5L37.9,126.9L37.1,126.8L37.5,126.4L38.1,126.5Z M46.3,125.7L46.8,126.0L46.3,126.8L47.1,126.9L47.4,127.3L46.9,127.6L46.1,127.7L45.9,127.2L46.3,127.0L46.0,126.6L45.6,126.5L46.3,125.7Z M53.5,125.5L53.9,125.5L54.0,126.0L54.5,126.5L54.9,127.3L54.2,127.5L54.1,127.2L53.1,126.6L52.8,125.9L53.5,125.5Z M51.4,124.5L51.9,125.0L51.4,125.5L50.9,124.8L51.4,124.5Z M15.5,124.4L16.9,125.0L17.0,125.5L17.7,125.7L18.9,127.0L18.6,128.1L18.3,128.4L18.4,128.8L17.7,129.6L17.1,129.9L16.6,129.8L16.4,130.3L15.9,130.2L15.8,130.7L15.3,130.7L14.3,131.3L13.6,131.5L12.6,131.3L12.6,130.9L12.1,130.7L11.9,130.2L11.4,129.5L11.7,128.9L12.8,127.8L13.5,127.6L13.7,127.0L14.2,126.9L14.9,126.0L15.6,126.0L15.8,125.6L15.3,125.0L15.5,124.4Z M48.5,123.5L49.0,123.7L48.6,124.2L48.1,124.0L48.5,123.5Z M5.5,123.2L5.6,124.0L5.1,124.2L4.7,124.1L4.6,123.7L5.5,123.2Z M10.9,123.0L11.3,123.7L11.8,123.9L12.0,124.4L11.6,124.9L11.7,125.4L11.3,125.5L11.2,125.9L10.4,126.2L10.3,125.1L10.8,125.3L11.2,124.7L10.7,123.8L10.4,123.8L10.4,123.2L10.9,123.0Z M10.4,122.3L10.4,122.9L10.1,123.6L10.6,124.0L10.8,124.6L10.5,125.1L9.6,125.2L9.4,123.9L9.4,123.2L9.9,123.0L9.9,122.7L10.4,122.3Z M12.9,121.9L13.8,122.2L14.0,123.1L13.3,123.6L12.4,123.5L11.9,122.7L12.1,122.2L12.9,121.9Z M11.3,121.6L11.3,122.0L11.2,122.8L10.8,122.4L10.8,121.6L11.3,121.6Z M-6.3,121.2L-6.9,122.1L-7.1,121.9L-6.3,121.2Z M14.1,120.9L14.1,121.6L13.8,121.9L13.2,121.7L13.2,121.3L14.1,120.9Z M-5.1,121.1L-4.5,121.3L-4.9,121.7L-5.0,122.2L-5.4,122.3L-5.4,122.8L-5.8,122.9L-5.8,123.4L-6.3,123.2L-6.5,122.8L-6.2,121.8L-5.8,121.1L-5.1,121.1Z M-10.9,120.7L-10.9,121.2L-11.1,121.7L-11.8,121.9L-11.2,120.9L-10.9,120.7Z M53.7,120.1L54.6,120.6L54.7,121.0L54.4,121.7L54.8,122.3L55.0,123.2L54.8,123.8L55.1,124.4L54.6,124.5L53.7,124.3L52.7,123.4L53.0,123.0L53.0,122.4L53.6,122.0L53.9,121.4L53.9,120.7L53.7,120.1Z M8.3,120.2L8.5,120.5L9.5,120.8L9.4,121.6L8.8,121.7L8.7,122.2L8.3,122.4L7.0,121.8L7.0,120.8L7.7,120.7L8.1,120.0L8.3,120.2Z M11.2,118.7L11.6,119.0L12.3,118.8L12.7,119.3L13.3,119.3L14.1,120.1L14.1,120.5L13.5,121.1L12.8,121.5L12.2,121.6L11.9,121.2L11.0,120.9L10.9,120.6L11.0,119.7L11.2,119.5L10.9,118.9L11.2,118.7Z M17.4,118.5L17.3,119.3L16.9,119.2L17.0,118.7L17.4,118.5Z M9.1,118.0L9.1,119.3L8.6,119.5L7.7,119.5L7.9,120.1L7.7,120.5L7.1,120.7L6.4,120.3L6.3,119.1L6.8,118.8L7.5,118.8L8.3,118.3L8.5,118.0L9.1,118.0Z M17.5,117.6L17.7,118.1L17.1,118.3L17.2,117.7L17.5,117.6Z M13.5,118.0L13.6,119.2L12.6,119.2L12.3,118.7L11.7,118.8L11.7,118.3L12.5,118.1L13.1,117.4L13.5,118.0Z M50.7,116.6L50.2,116.4L50.7,116.0L51.1,116.4L50.7,116.6Z M12.1,115.6L12.7,115.8L13.0,116.7L12.1,117.3L12.2,118.0L11.7,118.2L11.5,117.8L10.6,116.6L11.2,116.3L11.8,116.6L12.1,115.6Z M52.9,115.1L53.6,115.4L53.6,115.9L52.9,116.1L52.2,115.5L52.9,115.1Z M16.7,114.4L17.1,114.8L17.7,114.8L17.9,115.3L17.4,115.4L17.4,116.3L18.2,116.2L18.6,116.7L18.2,117.7L17.6,117.5L17.8,116.9L17.7,116.6L16.2,116.4L15.6,116.9L14.9,116.6L15.3,116.3L15.9,116.3L16.3,116.1L16.8,115.3L16.3,114.8L16.7,114.4Z M15.0,114.0L15.6,114.2L15.1,114.8L14.7,114.4L15.0,114.0Z M10.7,114.0L11.5,114.4L11.8,115.1L11.6,115.8L11.3,116.2L10.4,116.5L9.1,116.1L8.9,115.8L9.5,114.7L9.9,114.8L10.2,114.5L10.6,114.5L10.7,114.0Z M53.4,113.7L53.4,114.1L54.1,114.1L54.6,114.6L54.6,115.5L54.0,115.3L53.9,114.9L52.5,114.7L53.0,113.6L53.4,113.7Z M53.9,113.3L54.2,114.1L53.6,114.1L53.5,113.6L53.9,113.3Z M14.6,112.5L15.0,112.7L14.6,114.0L14.1,114.6L13.9,113.7L14.3,112.8L14.6,112.5Z M15.5,111.9L15.8,111.9L16.0,112.8L15.5,112.7L15.5,111.9Z M12.5,111.3L13.1,111.3L13.5,111.7L13.9,112.5L13.6,113.7L13.2,114.0L12.3,113.6L12.6,113.1L12.5,112.1L12.1,112.2L11.6,112.1L12.1,111.5L12.5,111.3Z M12.9,110.3L13.4,110.4L14.3,110.9L14.1,111.4L12.9,111.1L12.5,110.5L12.9,110.3Z M13.3,107.8L12.8,108.0L12.4,108.6L12.2,109.2L12.2,110.3L11.5,110.5L11.0,110.3L10.4,110.3L10.2,109.5L10.4,109.0L11.3,108.7L12.1,107.8L13.3,107.8Z M9.7,101.2L10.2,101.8L9.6,101.8L9.7,101.2Z M49.3,102.8L49.8,104.0L50.1,104.2L50.3,105.0L50.4,106.5L52.3,108.2L52.3,109.0L52.9,109.6L53.4,109.7L53.4,110.2L54.2,110.6L54.3,111.2L54.6,111.6L54.4,112.4L54.1,112.7L54.0,113.1L53.1,113.5L52.4,114.2L52.2,114.6L50.9,115.5L50.3,114.6L49.6,114.5L50.2,115.3L49.6,115.8L50.1,116.6L51.0,117.2L51.4,116.8L51.7,117.0L52.4,116.3L53.3,116.5L54.0,116.1L54.3,116.3L54.2,117.7L53.8,118.6L53.6,118.8L53.8,119.2L53.7,120.0L52.5,120.5L52.0,119.9L51.3,119.4L50.9,120.6L50.5,121.1L50.5,121.5L50.9,122.7L50.4,122.9L49.6,122.5L49.1,122.8L48.6,122.2L48.6,121.4L49.0,120.2L49.3,120.1L49.6,119.4L49.4,119.2L48.8,117.9L47.9,117.8L48.3,117.1L47.9,116.6L47.7,115.7L47.4,115.9L46.6,116.7L44.8,117.3L45.3,117.8L44.7,118.2L44.4,118.7L44.8,119.1L44.7,119.4L44.1,119.8L44.5,120.8L46.1,121.2L46.0,121.9L46.8,121.9L46.7,122.5L47.0,122.5L47.5,124.3L47.0,124.7L46.2,124.6L45.9,124.8L45.1,124.4L44.6,124.7L45.0,125.3L45.6,125.5L45.4,126.2L44.8,127.0L44.2,127.0L44.2,127.5L43.0,127.9L43.2,128.7L42.8,128.9L41.9,127.8L41.4,127.6L41.8,127.2L41.1,126.5L39.9,126.5L39.5,126.1L38.9,126.4L38.1,126.4L37.7,126.2L37.5,125.7L37.5,125.3L38.3,124.6L39.0,124.2L39.0,123.3L39.7,122.7L39.9,123.2L40.4,122.8L40.5,121.7L41.0,120.8L41.7,120.5L41.9,121.1L41.7,121.9L42.6,122.1L42.7,121.6L43.1,120.8L42.8,119.5L42.3,119.6L42.0,120.2L41.5,119.9L41.3,120.1L40.7,119.1L39.9,120.0L39.6,120.9L39.2,121.3L38.2,121.3L37.9,121.0L37.3,121.8L36.3,122.2L36.0,122.8L34.5,123.7L34.8,123.9L34.4,124.3L34.2,125.0L34.3,125.9L33.9,125.8L33.5,126.2L33.9,126.6L33.6,127.0L34.0,127.5L33.4,128.0L33.0,128.7L32.7,128.5L31.5,128.4L31.7,129.2L30.8,128.7L30.0,128.6L29.3,128.1L29.3,127.4L29.2,126.7L29.3,126.1L29.3,125.0L28.8,124.0L28.6,125.2L28.7,125.4L28.5,126.3L28.4,127.3L28.0,127.5L28.2,127.9L27.7,128.7L26.9,128.9L26.5,129.3L25.7,129.5L24.9,130.0L24.9,131.3L24.5,131.7L24.5,132.4L24.1,132.5L23.3,132.5L23.0,133.0L22.3,133.1L22.2,132.5L22.6,132.1L22.4,131.3L21.4,131.3L21.4,130.6L21.7,130.4L21.6,130.0L22.3,129.7L22.1,129.3L21.6,129.1L21.3,129.3L20.8,128.6L21.0,128.2L20.7,127.8L21.1,126.9L20.9,126.1L20.1,125.8L20.1,125.4L19.4,125.8L18.8,125.2L18.4,125.3L17.6,124.9L17.1,125.1L16.9,124.4L16.2,124.2L16.4,123.2L16.0,123.1L15.8,122.3L15.6,122.2L15.7,121.3L16.1,120.7L16.1,120.2L16.4,119.3L16.8,119.2L17.7,119.9L18.1,121.0L17.8,121.2L17.9,121.9L18.5,122.9L18.7,123.5L20.2,124.4L20.0,123.7L18.7,122.8L18.3,121.8L17.9,121.5L18.5,121.1L19.0,120.2L18.5,120.0L18.8,119.5L18.8,119.1L20.6,118.6L20.4,118.1L19.4,118.6L18.5,118.7L18.4,118.3L18.6,117.7L19.0,117.0L19.5,116.5L19.2,116.0L19.4,115.7L19.1,115.4L19.4,114.7L19.1,114.5L19.0,113.7L19.2,113.2L18.8,113.0L18.5,114.3L17.9,114.7L17.5,114.5L17.3,113.8L16.6,113.1L16.9,112.5L17.6,113.0L18.3,112.5L17.9,112.0L19.1,111.3L18.9,110.7L18.1,110.9L17.9,110.0L17.5,109.4L16.8,110.7L16.6,110.3L15.8,110.5L16.1,111.0L15.7,111.7L14.9,111.4L15.1,110.8L14.8,110.4L13.9,110.4L13.2,110.1L13.4,109.0L14.0,108.7L15.1,109.1L15.4,108.8L15.7,107.8L16.1,107.7L17.4,108.1L17.9,107.6L17.9,108.6L17.7,109.3L18.5,110.0L19.2,109.8L19.5,110.2L19.3,111.1L20.4,110.4L20.6,109.9L20.3,109.6L20.9,109.3L20.5,108.9L19.8,108.9L19.4,108.0L18.4,107.1L17.8,106.3L17.0,106.7L16.7,105.3L17.1,104.5L17.4,104.5L17.4,103.4L18.3,103.4L18.8,102.9L18.8,102.2L19.3,101.0L19.5,99.8L19.9,99.2L20.5,99.2L21.3,99.4L21.6,99.7L21.4,100.5L22.4,101.6L22.3,102.3L22.7,102.9L23.2,102.7L24.2,102.9L23.9,102.4L24.5,102.0L25.0,102.5L25.6,102.5L26.1,101.5L26.9,101.6L27.1,101.1L27.5,101.1L27.7,100.8L27.7,100.3L28.3,99.4L28.2,98.6L28.6,98.1L29.8,98.0L30.2,97.5L30.8,98.1L31.3,98.2L32.2,98.9L32.0,99.1L32.3,99.6L32.8,99.9L32.9,100.2L33.7,100.2L34.0,100.0L33.8,99.3L34.9,98.3L35.5,98.1L35.6,99.0L35.8,99.2L35.7,100.1L35.4,100.4L35.8,100.8L36.0,100.6L36.4,101.1L36.3,102.0L35.9,101.9L35.8,102.5L36.2,102.6L37.5,103.1L38.3,102.6L38.9,102.1L39.7,102.6L40.1,102.6L40.3,102.0L41.2,102.7L41.9,102.7L42.4,103.0L43.7,102.5L44.4,103.0L45.6,101.3L46.6,101.1L47.4,101.3L48.1,102.0L49.3,102.8Z M32.2,104.3L31.8,104.7L31.4,104.6L30.5,105.2L29.7,105.5L28.4,105.1L28.6,104.5L27.9,104.5L27.5,105.3L27.4,105.7L27.0,105.9L26.6,105.6L26.4,106.3L25.9,106.3L26.2,107.0L25.8,107.2L25.7,108.5L26.4,108.9L26.6,108.7L28.0,108.9L28.5,109.4L29.0,110.5L29.4,110.3L30.0,110.5L30.9,109.7L31.3,109.9L32.6,109.4L32.9,109.9L33.4,109.9L33.8,109.4L34.3,109.3L34.8,108.4L34.8,107.4L35.1,107.1L34.6,106.5L34.0,106.5L32.9,104.9L32.8,104.5L32.2,104.3Z M19.9,119.9L19.3,119.9L19.0,120.5L20.7,120.9L20.6,121.5L21.1,122.3L21.3,121.7L21.7,122.1L23.0,122.4L22.9,121.6L22.6,120.9L21.8,120.0L21.1,119.9L20.8,120.2L20.2,120.2L19.9,119.9Z"/><path d="M16.9,93.4L17.1,93.7L16.9,94.2L16.5,94.3L15.8,95.0L15.5,94.5L16.0,94.4L16.2,94.0L16.6,93.9L16.9,93.4Z M50.8,80.0L51.3,80.4L51.4,80.9L52.0,80.2L52.3,80.4L52.6,81.1L53.2,81.1L54.7,81.7L55.0,81.3L56.3,80.9L56.9,81.4L56.9,82.2L57.4,82.5L57.7,83.9L57.1,84.3L57.2,84.7L56.3,85.4L56.0,86.1L55.8,86.0L55.2,86.5L54.7,86.5L54.3,86.9L53.6,86.8L52.9,88.2L52.4,88.4L51.4,89.3L51.4,90.8L51.0,91.1L50.9,92.0L50.6,92.2L50.4,92.8L50.6,93.5L50.2,93.9L50.1,94.5L49.6,95.1L49.6,95.5L50.5,96.1L50.5,96.4L51.2,97.5L50.8,97.7L50.8,98.2L51.0,98.6L51.6,98.6L51.5,99.6L50.9,99.9L50.1,101.1L50.5,101.8L50.4,102.1L49.7,102.7L49.3,102.8L48.1,102.0L47.4,101.3L46.6,101.1L45.6,101.3L44.4,103.0L43.7,102.5L42.4,103.0L41.9,102.7L41.2,102.7L40.3,102.0L40.1,102.6L39.7,102.6L38.9,102.1L38.3,102.6L37.5,103.1L36.2,102.6L35.8,102.5L35.9,101.9L36.3,102.0L36.4,101.1L36.0,100.6L35.8,100.8L35.4,100.4L35.7,100.1L35.8,99.2L35.6,99.0L35.5,98.1L34.9,98.3L33.8,99.3L34.0,100.0L33.7,100.2L32.9,100.2L32.8,99.9L32.3,99.6L32.0,99.1L32.2,98.9L31.3,98.2L30.8,98.1L30.2,97.5L29.8,98.0L28.6,98.1L28.2,98.6L28.3,99.4L27.7,100.3L27.7,100.8L27.5,101.1L27.1,101.1L26.9,101.6L26.1,101.5L25.6,102.5L25.0,102.5L24.5,102.0L23.9,102.4L24.2,102.9L23.2,102.7L22.7,102.9L22.3,102.3L22.4,101.6L21.4,100.5L21.6,99.7L21.3,99.4L20.5,99.2L20.1,98.9L20.4,98.5L21.4,96.5L22.4,96.1L22.9,96.3L23.5,95.8L24.5,95.8L24.8,95.4L24.9,95.0L25.6,95.0L26.1,95.4L26.2,94.7L25.3,94.3L24.9,94.5L23.8,94.4L22.9,94.5L22.6,94.7L21.7,94.5L21.0,94.0L21.0,93.1L21.5,92.4L21.9,92.4L22.7,91.5L23.4,91.1L23.7,91.2L24.5,90.5L25.1,89.6L25.0,88.4L25.5,88.2L26.9,88.1L27.7,88.3L28.7,88.8L28.9,88.0L27.8,87.5L26.9,86.9L26.8,86.5L27.8,86.1L29.2,86.1L29.5,85.9L29.5,85.3L29.1,85.0L28.7,85.4L27.9,85.3L27.6,85.5L26.9,85.3L26.4,85.2L26.1,85.6L24.8,85.5L24.7,84.6L24.8,83.8L24.3,83.7L22.6,83.9L22.4,83.0L23.6,82.8L25.5,82.7L26.1,82.6L26.5,82.1L27.6,82.2L27.8,82.1L28.2,81.4L28.9,81.1L29.8,81.1L30.3,80.7L31.1,80.3L31.4,79.3L31.4,78.7L31.9,77.9L32.6,77.9L33.5,77.4L34.3,77.7L34.7,77.6L35.2,78.0L35.9,77.8L36.2,79.3L36.7,79.8L38.0,80.0L38.1,79.5L38.9,79.6L39.2,79.3L39.7,79.5L39.8,79.1L40.9,79.2L41.0,78.7L41.6,78.9L42.1,78.7L42.4,78.3L43.2,78.2L43.6,78.8L43.8,79.4L43.8,80.5L44.1,81.1L44.8,81.9L45.4,81.3L45.9,81.9L46.2,82.6L46.5,82.5L47.0,82.7L47.5,82.7L48.2,82.3L48.3,81.7L48.3,81.1L49.7,81.3L49.9,81.7L50.3,81.9L50.7,80.9L50.4,80.8L50.5,80.1L50.8,80.0Z"/><path d="M18.2,71.4L18.3,72.2L17.8,72.1L18.2,71.4Z M20.2,70.5L20.8,71.5L19.2,71.1L19.0,70.7L20.2,70.5Z M17.8,69.9L17.8,70.7L17.4,70.4L17.8,69.9Z M18.3,63.7L18.9,63.9L19.3,64.6L19.1,65.6L19.2,66.5L20.0,68.2L20.2,69.5L19.8,69.9L19.5,69.7L18.9,69.6L18.6,69.8L17.7,68.9L17.4,68.1L17.6,67.3L17.3,65.3L17.0,65.0L17.0,64.5L17.8,63.8L18.3,63.7Z M20.0,50.1L20.6,50.5L19.9,50.8L20.0,50.1Z M32.3,54.9L34.5,54.0L35.4,54.2L36.1,53.9L36.5,53.9L37.5,52.9L37.9,53.1L38.3,52.9L39.4,53.5L39.7,53.5L40.2,54.2L40.8,54.6L41.5,54.7L42.0,55.3L42.4,55.5L42.4,56.2L43.2,56.4L43.1,57.2L43.7,57.2L44.3,57.7L44.8,58.2L44.7,58.6L45.1,58.9L45.1,59.4L44.7,59.7L44.5,59.3L43.2,59.5L43.3,60.1L42.9,60.1L42.4,60.5L42.4,60.9L41.9,61.4L40.9,61.2L39.8,60.3L38.8,60.1L38.0,60.9L38.2,61.3L38.7,61.3L38.8,61.7L38.5,62.1L38.6,63.0L38.6,63.9L39.2,64.2L39.5,64.7L39.5,65.1L39.0,66.0L39.2,66.4L38.9,66.7L39.8,68.3L39.7,68.8L40.3,69.4L41.2,69.8L41.8,69.7L41.8,70.8L41.5,71.2L41.7,71.6L41.2,72.3L41.2,73.2L40.9,73.6L41.8,74.1L41.8,75.0L42.6,75.4L42.8,76.0L43.3,76.4L43.6,75.7L43.9,75.5L43.8,74.2L44.1,73.9L44.5,74.1L44.4,74.6L44.8,75.1L45.0,75.7L45.9,76.3L46.5,75.6L46.5,75.4L47.1,74.9L47.8,74.9L48.1,74.6L48.6,74.9L49.3,75.1L49.8,75.6L49.7,76.2L49.9,77.2L49.6,78.1L50.3,78.9L50.3,79.3L50.8,80.0L50.5,80.1L50.4,80.8L50.7,80.9L50.3,81.9L49.9,81.7L49.7,81.3L48.3,81.1L48.3,81.7L48.2,82.3L47.5,82.7L47.0,82.7L46.5,82.5L46.2,82.6L45.9,81.9L45.4,81.3L44.8,81.9L44.1,81.1L43.8,80.5L43.8,79.4L43.6,78.8L43.2,78.2L42.4,78.3L42.1,78.7L41.6,78.9L41.0,78.7L40.9,79.2L39.8,79.1L39.7,79.5L39.2,79.3L38.9,79.6L38.1,79.5L38.0,80.0L36.7,79.8L36.2,79.3L35.9,77.8L35.2,78.0L34.7,77.6L34.3,77.7L33.5,77.4L32.6,77.9L31.9,77.9L31.4,78.7L31.4,79.3L31.1,80.3L30.3,80.7L29.8,81.1L28.9,81.1L28.2,81.4L27.8,82.1L26.0,81.8L26.1,81.1L25.5,80.4L25.2,80.4L25.3,79.3L24.6,78.8L23.8,77.9L23.4,78.2L22.8,77.6L22.2,77.5L22.5,76.5L23.0,76.2L22.6,75.4L22.6,74.9L23.1,74.2L22.6,73.2L22.3,73.1L21.9,72.3L23.2,71.6L22.1,70.7L21.4,70.6L21.6,69.7L21.8,69.3L21.4,68.5L21.2,67.0L21.5,66.6L20.9,65.9L20.5,64.5L20.6,64.2L21.3,63.9L21.2,63.6L20.8,63.3L21.1,62.5L20.9,62.1L20.4,62.1L20.4,62.8L19.9,64.1L19.6,64.0L19.2,63.5L18.4,63.3L18.3,62.0L17.8,62.0L18.0,62.9L18.2,63.3L17.3,64.2L16.6,64.6L16.3,64.2L16.4,63.5L16.7,63.2L16.4,62.2L15.8,61.9L15.8,61.2L16.1,60.9L16.0,60.3L15.6,60.6L15.0,61.3L14.5,61.3L14.2,61.9L13.5,61.7L12.5,62.0L12.4,61.4L12.9,61.5L12.9,61.0L13.5,60.5L14.4,60.9L14.8,60.4L14.3,60.3L13.8,59.5L13.3,59.4L12.9,59.6L13.0,60.2L12.6,60.5L12.2,60.3L12.5,59.9L11.7,58.9L12.4,58.8L12.8,58.4L13.2,57.3L12.8,56.9L13.3,56.7L13.6,57.0L14.1,56.6L13.9,56.0L14.5,55.1L15.5,54.7L15.3,55.4L14.8,55.7L15.3,56.2L15.6,55.7L16.0,55.6L16.4,55.0L16.6,54.2L16.4,53.2L17.0,52.9L17.1,53.4L16.8,53.8L16.8,54.4L17.3,54.9L17.3,55.3L16.6,56.8L17.2,56.9L16.3,57.5L16.7,57.8L17.7,57.6L17.3,57.0L17.4,56.4L17.8,56.6L18.4,56.6L18.6,56.2L18.4,55.8L19.2,55.3L19.6,54.9L18.8,53.8L17.6,53.3L17.8,52.8L17.4,52.3L18.7,51.7L20.0,51.6L20.6,51.9L21.3,53.0L21.5,52.6L20.7,51.3L21.8,50.1L22.4,50.3L22.6,50.8L25.4,52.1L27.1,52.1L27.4,52.3L29.0,52.8L29.0,53.1L29.6,54.4L29.8,54.3L29.9,55.2L30.2,55.5L30.3,56.2L30.7,55.8L31.6,55.4L32.4,55.4L32.3,54.9Z"/><path d="M76.7,50.1L76.1,50.9L74.9,50.8L74.4,51.1L74.6,51.6L73.9,52.3L73.2,52.5L73.1,52.8L71.8,53.7L71.8,54.1L71.3,54.2L71.3,55.0L70.9,55.8L71.5,56.2L71.5,56.6L70.8,57.7L69.8,57.7L69.4,58.1L68.6,57.6L68.2,57.6L67.6,57.1L67.3,56.4L66.2,55.9L66.0,56.7L65.5,56.6L65.6,57.6L64.3,57.5L63.6,57.1L62.9,57.5L62.8,57.9L62.2,58.0L61.5,57.6L61.5,58.3L60.9,59.7L61.8,60.4L61.9,60.9L61.3,60.8L60.6,60.3L60.1,60.6L59.7,60.6L59.1,60.0L58.7,60.5L58.3,60.9L58.3,61.3L57.2,61.3L58.3,62.1L58.5,62.6L58.3,63.5L57.2,63.2L56.8,62.4L56.6,63.0L56.2,63.1L56.2,63.7L55.6,63.7L54.9,64.3L55.6,65.0L56.5,65.0L56.8,65.4L56.8,65.9L57.5,66.3L57.7,66.9L57.0,67.7L57.1,68.3L56.8,69.0L57.1,69.4L56.8,69.9L57.3,71.4L57.0,71.7L56.3,72.2L56.0,72.8L56.3,73.8L57.0,73.8L57.3,73.3L58.3,73.7L58.8,74.4L59.2,74.6L59.6,74.2L60.3,73.9L61.2,74.4L60.8,74.9L61.3,75.6L61.4,76.1L61.0,76.3L60.4,75.8L59.7,76.1L59.4,76.4L59.9,77.5L59.7,78.2L59.2,78.5L59.0,79.2L59.1,80.0L58.4,80.6L57.9,80.5L57.6,80.9L56.9,81.4L56.3,80.9L55.0,81.3L54.7,81.7L53.2,81.1L52.6,81.1L52.3,80.4L52.0,80.2L51.4,80.9L51.3,80.4L50.8,80.0L50.3,79.3L50.3,78.9L49.6,78.1L49.9,77.2L49.7,76.2L49.8,75.6L49.3,75.1L48.6,74.9L48.1,74.6L47.8,74.9L47.1,74.9L47.0,74.3L47.3,73.5L47.4,72.1L48.0,71.0L48.0,70.5L48.7,70.1L48.4,69.5L47.7,69.4L47.4,69.8L47.1,69.1L47.4,68.6L46.8,68.4L46.1,68.6L45.7,68.4L44.8,68.4L44.9,67.6L44.7,67.3L45.0,67.2L45.0,66.4L44.8,65.9L44.4,65.8L44.1,65.3L43.2,65.2L42.9,64.7L42.4,64.6L42.3,63.6L41.7,63.0L41.9,62.5L42.2,62.3L42.4,61.6L41.9,61.4L42.4,60.9L42.4,60.5L42.9,60.1L43.3,60.1L43.2,59.5L44.5,59.3L44.7,59.7L45.1,59.4L45.1,58.9L44.7,58.6L44.8,58.2L44.3,57.7L43.7,57.2L43.1,57.2L43.2,56.4L42.4,56.2L42.4,55.5L42.0,55.3L42.5,54.2L43.3,53.8L43.5,53.5L44.2,53.5L44.8,53.1L44.4,52.6L44.6,52.1L45.5,52.0L46.3,51.5L46.3,50.8L47.0,50.5L47.3,50.7L47.7,50.3L48.7,50.8L49.0,50.7L49.0,50.2L49.9,49.5L50.7,49.2L50.8,47.9L52.1,48.0L52.9,46.6L53.1,46.6L53.4,45.8L53.6,45.6L53.5,45.8L53.8,46.8L54.1,47.4L54.7,47.7L55.3,47.7L56.5,47.4L56.8,47.2L57.6,47.5L58.1,47.1L58.4,46.4L58.1,45.3L58.7,44.7L59.7,44.3L60.5,44.8L60.6,45.1L61.1,45.6L60.8,46.0L61.1,46.4L62.1,46.3L62.9,45.9L63.2,45.4L64.0,45.6L64.5,45.5L64.5,45.1L65.2,44.6L65.7,44.9L65.9,45.2L66.5,45.2L66.9,45.8L68.1,45.4L68.5,45.6L68.3,46.2L67.1,46.9L66.8,47.3L67.0,47.7L67.5,47.9L68.5,47.6L68.6,47.3L70.3,47.7L70.2,48.2L70.8,48.7L72.1,48.8L72.4,48.5L73.1,48.7L73.2,49.0L73.8,49.4L74.4,49.4L75.1,49.7L76.0,49.8L76.7,50.1Z"/><path d="M94.8,47.7L94.2,47.7L93.3,48.2L93.0,48.7L92.4,48.6L92.3,49.0L91.9,49.2L91.3,49.9L91.4,50.7L90.5,50.9L89.1,49.6L88.0,49.1L87.5,49.3L87.2,50.1L85.1,49.6L84.5,49.8L84.1,49.2L83.5,49.3L82.9,50.7L82.3,50.7L81.6,50.5L81.1,49.7L80.6,49.8L80.0,49.5L79.5,50.2L79.2,50.4L79.4,51.0L79.2,51.2L78.8,50.9L77.9,50.9L77.6,50.5L76.0,49.8L75.1,49.7L74.4,49.4L73.8,49.4L73.2,49.0L73.1,48.7L72.4,48.5L72.1,48.8L70.8,48.7L70.2,48.2L70.3,47.7L68.6,47.3L68.5,47.6L67.5,47.9L67.0,47.7L66.8,47.3L67.1,46.9L68.3,46.2L68.5,45.6L68.1,45.4L66.9,45.8L66.5,45.2L65.9,45.2L65.7,44.9L65.2,44.6L64.5,45.1L64.5,45.5L64.0,45.6L63.2,45.4L62.9,45.9L62.1,46.3L61.1,46.4L60.8,46.0L61.1,45.6L60.6,45.1L60.5,44.8L59.7,44.3L58.7,44.7L58.1,45.3L58.4,46.4L58.1,47.1L57.6,47.5L56.8,47.2L56.5,47.4L55.3,47.7L54.7,47.7L54.1,47.4L53.8,46.8L53.5,45.8L53.6,45.6L53.7,44.7L53.9,44.3L53.8,43.2L54.2,42.9L53.9,42.2L53.9,41.1L54.4,40.9L54.4,40.4L54.8,39.4L55.1,39.2L54.9,38.2L54.3,37.3L54.3,36.9L55.1,36.0L56.0,35.9L56.2,35.5L55.3,35.1L54.8,34.5L54.1,34.6L53.8,34.3L52.6,34.5L52.3,34.1L51.2,33.4L50.6,32.8L49.9,32.5L49.4,33.1L48.8,33.2L48.3,32.8L48.7,32.2L48.6,31.5L48.9,30.5L48.4,30.5L47.5,30.2L48.5,29.3L47.9,28.3L48.2,27.8L48.0,27.4L48.2,26.8L48.9,26.4L49.5,25.8L49.9,25.8L50.3,24.9L50.2,23.9L49.9,23.4L48.5,23.0L48.5,22.7L48.3,22.1L47.4,22.1L46.6,21.9L46.3,21.6L45.9,20.3L46.0,20.0L45.8,18.8L45.6,18.6L45.1,19.0L44.9,18.7L44.4,18.7L42.8,19.2L42.5,18.6L41.8,18.6L41.6,18.0L41.9,17.5L42.0,16.8L41.5,16.6L41.1,17.2L40.3,17.7L39.4,17.3L39.2,16.5L38.8,16.1L38.9,15.7L38.7,15.1L38.4,14.8L37.9,15.1L37.4,14.8L37.5,14.1L37.4,13.3L38.1,12.8L38.2,12.2L38.7,12.1L39.2,12.6L39.6,12.5L40.8,11.9L41.2,12.1L42.1,12.3L42.5,12.6L43.2,12.1L43.5,12.2L44.5,11.9L45.4,12.1L46.0,12.6L46.7,12.5L47.0,13.0L47.5,13.0L48.4,12.3L49.6,11.9L50.0,11.9L50.8,12.2L52.2,12.1L52.4,11.8L53.2,11.9L53.6,11.6L54.4,11.5L55.0,12.3L56.1,12.2L57.1,11.8L58.2,12.0L59.5,12.5L61.7,12.7L65.5,10.6L66.2,10.0L66.4,9.7L67.2,9.0L67.7,7.9L68.1,5.1L68.0,4.3L68.2,3.8L69.0,3.7L70.2,5.1L70.4,5.8L70.8,6.4L70.8,6.9L71.3,7.8L72.0,8.5L71.7,8.7L71.7,9.2L72.1,9.8L73.2,10.9L73.5,11.9L74.1,12.7L74.5,14.0L75.1,14.8L75.0,15.2L75.3,16.1L75.6,16.6L75.6,17.5L76.2,18.6L77.0,19.3L77.3,20.1L77.9,20.8L78.5,21.4L78.8,21.9L79.7,23.4L80.2,23.7L80.2,24.0L81.3,25.1L81.2,25.5L82.4,26.9L82.4,27.2L85.2,29.9L85.9,30.8L87.0,31.8L87.0,32.3L86.6,32.8L86.9,33.4L88.5,34.8L88.6,35.4L88.4,35.9L88.6,36.5L89.6,37.8L90.3,38.4L90.6,39.6L91.1,40.2L91.9,40.7L91.9,41.2L92.3,41.8L92.4,42.4L93.2,43.0L93.2,43.3L93.9,43.7L93.8,44.1L94.6,45.0L94.2,45.3L94.4,45.7L94.2,46.3L94.2,46.8L94.8,47.7Z"/><path d="M24.6,42.8L24.0,43.2L23.7,43.7L24.3,44.2L24.6,44.2L25.0,45.0L25.7,45.3L25.6,45.8L24.7,45.5L24.5,45.9L24.0,45.5L23.6,46.0L23.0,45.9L22.9,45.3L23.4,44.8L23.5,44.4L23.1,43.7L23.6,43.6L23.9,43.2L24.6,42.8Z M53.6,45.6L53.4,45.8L53.1,46.6L52.9,46.6L52.1,48.0L50.8,47.9L50.7,49.2L49.9,49.5L49.0,50.2L49.0,50.7L48.7,50.8L47.7,50.3L47.3,50.7L47.0,50.5L46.3,50.8L46.3,51.5L45.5,52.0L44.6,52.1L44.4,52.6L44.8,53.1L44.2,53.5L43.5,53.5L43.3,53.8L42.5,54.2L42.0,55.3L41.5,54.7L40.8,54.6L40.2,54.2L39.7,53.5L39.4,53.5L38.3,52.9L37.9,53.1L37.5,52.9L36.5,53.9L36.1,53.9L35.4,54.2L34.5,54.0L32.3,54.9L32.2,54.3L31.7,54.0L31.1,54.1L31.1,53.6L30.7,53.3L30.2,52.5L30.1,52.2L29.4,51.8L29.2,51.2L28.3,51.2L28.2,50.6L28.5,50.0L28.7,49.0L28.5,48.8L28.7,48.2L29.4,48.2L29.6,47.5L29.3,46.8L28.9,47.1L28.1,47.1L27.7,47.9L26.7,48.6L26.3,47.9L26.5,47.6L26.0,47.2L26.1,45.8L26.4,45.4L26.1,45.0L26.6,44.2L27.8,44.6L28.4,44.4L29.2,44.8L29.3,44.1L30.2,43.4L29.6,43.2L28.8,43.4L27.6,43.0L27.5,42.7L26.8,42.1L26.7,41.6L27.0,41.4L27.9,40.2L28.3,39.4L28.7,39.3L29.0,38.6L28.7,37.9L28.0,37.5L28.1,36.7L28.5,36.6L28.7,35.5L28.8,35.6L30.1,35.9L30.2,36.3L29.9,37.3L30.1,37.8L30.5,37.8L31.2,37.3L32.1,39.1L32.7,38.6L33.1,39.0L33.7,38.9L34.7,38.1L34.9,38.4L35.5,38.4L35.5,38.8L35.9,39.2L36.3,39.2L37.1,38.3L37.6,38.2L38.3,37.8L38.7,37.1L38.2,36.8L38.8,35.7L39.2,35.7L39.2,35.3L39.0,34.7L37.2,35.3L37.2,34.6L37.6,33.9L37.3,32.7L36.9,32.6L37.0,31.4L36.7,31.2L35.9,31.4L35.0,31.1L34.8,31.5L34.4,31.8L34.1,32.4L34.2,33.0L34.0,33.1L33.3,32.3L32.4,32.8L32.1,33.7L32.1,34.2L31.4,34.7L30.8,34.8L30.0,34.4L29.6,34.0L29.3,34.6L28.1,34.3L27.6,34.3L26.9,33.6L25.9,32.9L25.3,33.2L25.1,33.9L24.6,34.0L23.7,34.5L23.2,33.8L23.1,33.3L22.6,32.5L22.8,32.1L22.5,31.8L22.6,31.0L22.3,30.7L22.6,29.6L22.2,29.1L22.8,28.9L23.3,29.0L23.6,29.4L24.7,29.5L25.4,28.7L26.0,28.4L26.3,27.2L25.9,26.9L26.7,26.1L26.2,25.5L26.4,25.2L26.1,24.4L26.3,23.4L26.7,23.8L27.3,23.9L28.1,23.5L28.0,22.9L28.6,22.5L29.0,22.6L29.4,22.3L30.3,22.3L30.1,21.7L30.3,21.1L30.9,21.1L31.4,21.5L31.6,20.9L31.9,20.5L31.9,19.9L31.2,19.7L30.8,19.2L30.2,19.7L30.1,19.4L29.4,19.6L29.1,19.1L28.2,18.2L28.7,17.4L30.2,16.1L31.4,15.4L31.9,15.9L32.7,16.0L33.4,15.8L33.7,16.1L34.2,15.7L34.0,15.1L34.4,15.0L35.3,14.4L36.4,14.0L37.4,13.3L37.5,14.1L37.4,14.8L37.9,15.1L38.4,14.8L38.7,15.1L38.9,15.7L38.8,16.1L39.2,16.5L39.4,17.3L40.3,17.7L41.1,17.2L41.5,16.6L42.0,16.8L41.9,17.5L41.6,18.0L41.8,18.6L42.5,18.6L42.8,19.2L44.4,18.7L44.9,18.7L45.1,19.0L45.6,18.6L45.8,18.8L46.0,20.0L45.9,20.3L46.3,21.6L46.6,21.9L47.4,22.1L48.3,22.1L48.5,22.7L48.5,23.0L49.9,23.4L50.2,23.9L50.3,24.9L49.9,25.8L49.5,25.8L48.9,26.4L48.2,26.8L48.0,27.4L48.2,27.8L47.9,28.3L48.5,29.3L47.5,30.2L48.4,30.5L48.9,30.5L48.6,31.5L48.7,32.2L48.3,32.8L48.8,33.2L49.4,33.1L49.9,32.5L50.6,32.8L51.2,33.4L52.3,34.1L52.6,34.5L53.8,34.3L54.1,34.6L54.8,34.5L55.3,35.1L56.2,35.5L56.0,35.9L55.1,36.0L54.3,36.9L54.3,37.3L54.9,38.2L55.1,39.2L54.8,39.4L54.4,40.4L54.4,40.9L53.9,41.1L53.9,42.2L54.2,42.9L53.8,43.2L53.9,44.3L53.7,44.7L53.6,45.6Z"/><path d="M41.9,61.4L42.4,61.6L42.2,62.3L41.9,62.5L41.7,63.0L42.3,63.6L42.4,64.6L42.9,64.7L43.2,65.2L44.1,65.3L44.4,65.8L44.8,65.9L45.0,66.4L45.0,67.2L44.7,67.3L44.3,67.1L43.7,67.5L43.8,68.0L43.6,68.7L42.9,69.4L42.1,69.4L41.8,69.7L41.2,69.8L40.3,69.4L39.7,68.8L39.8,68.3L38.9,66.7L39.2,66.4L39.0,66.0L39.5,65.1L39.5,64.7L39.2,64.2L38.6,63.9L38.6,63.0L38.5,62.1L38.8,61.7L38.7,61.3L38.2,61.3L38.0,60.9L38.8,60.1L39.8,60.3L40.9,61.2L41.9,61.4Z"/><path d="M97.0,92.6L96.7,93.2L97.3,94.0L97.4,94.5L97.0,94.9L97.2,95.3L96.9,96.4L96.7,97.5L95.3,97.8L94.4,98.6L94.8,98.8L94.8,99.8L94.3,100.8L94.7,101.4L93.7,101.7L93.3,102.2L92.6,101.8L92.7,101.2L92.3,100.5L91.1,100.7L90.7,100.5L91.1,99.8L90.5,98.9L90.0,99.1L89.6,99.0L89.1,98.6L88.3,97.7L88.2,97.2L86.1,96.3L85.4,96.2L84.8,95.3L85.4,95.0L86.0,94.6L86.2,94.1L86.0,93.6L85.6,93.5L86.7,92.6L87.4,92.9L87.2,92.3L87.3,91.7L87.8,91.0L89.0,90.7L89.2,90.3L89.6,90.6L90.8,90.4L91.5,91.0L92.0,91.0L92.2,91.3L92.0,92.1L92.1,92.5L93.2,92.6L94.5,91.7L96.0,92.2L97.0,92.6Z"/><path d="M47.1,74.9L46.5,75.4L46.5,75.6L45.9,76.3L45.0,75.7L44.8,75.1L44.4,74.6L44.5,74.1L44.1,73.9L43.8,74.2L43.9,75.5L43.6,75.7L43.3,76.4L42.8,76.0L42.6,75.4L41.8,75.0L41.8,74.1L40.9,73.6L41.2,73.2L41.2,72.3L41.7,71.6L41.5,71.2L41.8,70.8L41.8,69.7L42.1,69.4L42.9,69.4L43.6,68.7L43.8,68.0L43.7,67.5L44.3,67.1L44.9,67.6L44.8,68.4L45.7,68.4L46.1,68.6L46.8,68.4L47.4,68.6L47.1,69.1L47.4,69.8L47.7,69.4L48.4,69.5L48.7,70.1L48.0,70.5L48.0,71.0L47.4,72.1L47.3,73.5L47.0,74.3L47.1,74.9Z"/><path d="M32.2,104.3L32.8,104.5L32.9,104.9L34.0,106.5L34.6,106.5L35.1,107.1L34.8,107.4L34.8,108.4L34.3,109.3L33.8,109.4L33.4,109.9L32.9,109.9L32.6,109.4L31.3,109.9L30.9,109.7L30.0,110.5L29.4,110.3L29.0,110.5L28.5,109.4L28.0,108.9L26.6,108.7L26.4,108.9L25.7,108.5L25.8,107.2L26.2,107.0L25.9,106.3L26.4,106.3L26.6,105.6L27.0,105.9L27.4,105.7L27.5,105.3L27.9,104.5L28.6,104.5L28.4,105.1L29.7,105.5L30.5,105.2L31.4,104.6L31.8,104.7L32.2,104.3Z"/><path d="M11.2,48.8L11.4,49.2L11.0,49.6L10.7,49.2L11.2,48.8Z M11.6,46.5L12.0,47.0L11.5,47.1L11.6,46.5Z M16.5,43.9L17.2,44.2L16.9,44.5L16.3,44.2L16.5,43.9Z M11.9,43.9L12.2,44.3L12.8,44.9L13.2,45.0L12.8,45.7L12.1,45.8L12.0,45.4L11.5,45.2L11.4,44.7L11.9,43.9Z M21.1,43.5L21.6,43.6L21.9,44.3L21.4,44.6L20.8,45.3L20.1,45.0L20.3,43.9L21.1,43.5Z M19.6,39.7L20.4,40.5L20.2,41.0L19.7,41.1L19.3,40.0L19.6,39.7Z M23.9,37.0L24.0,37.4L23.6,37.7L22.9,37.7L22.1,38.1L21.8,38.6L20.4,39.5L19.8,39.4L19.7,39.1L19.2,38.7L18.6,38.7L18.2,38.1L18.6,37.9L20.1,37.0L21.0,37.1L21.4,37.0L21.8,36.1L22.5,36.3L23.5,36.6L23.9,37.0Z M20.9,35.8L21.2,36.0L21.0,36.8L20.1,36.3L20.9,35.8Z M17.0,35.3L18.3,36.2L17.5,36.3L17.5,35.9L17.0,35.3Z M29.3,34.6L28.7,35.5L28.5,36.6L28.1,36.7L28.0,37.5L28.7,37.9L29.0,38.6L28.7,39.3L28.3,39.4L27.7,40.5L26.0,41.8L24.9,41.8L24.7,40.9L24.4,40.5L24.4,39.2L24.2,38.2L24.5,37.2L24.5,36.2L24.6,35.5L24.2,35.3L23.7,34.5L24.6,34.0L25.1,33.9L25.3,33.2L25.9,32.9L26.9,33.6L27.6,34.3L28.1,34.3L29.3,34.6Z M15.1,32.4L15.6,32.5L15.4,33.2L14.9,32.6L15.1,32.4Z M1.9,31.7L1.8,32.1L1.1,32.5L1.1,31.6L1.9,31.7Z M14.1,31.4L14.5,32.1L14.4,32.4L13.7,32.0L14.1,31.4Z M17.5,29.6L17.3,30.6L18.0,31.1L18.6,31.2L18.7,32.0L17.9,32.8L17.4,32.8L17.5,32.2L17.2,31.6L16.4,31.2L16.0,30.8L16.4,30.6L16.5,29.8L17.5,29.6Z M15.9,27.6L16.6,28.0L17.5,27.9L17.7,28.1L17.2,28.8L16.6,29.2L16.1,29.0L15.4,29.1L14.9,29.5L14.4,29.0L14.8,28.4L14.8,27.9L15.2,27.6L15.9,27.6Z M22.5,29.9L22.3,30.7L22.6,31.0L22.5,31.8L22.8,32.1L22.6,32.5L22.6,32.9L23.1,33.9L22.5,34.2L22.3,34.7L21.9,34.4L21.4,34.6L21.2,34.2L20.2,34.3L19.4,34.3L18.8,33.8L18.6,33.1L19.5,32.6L19.0,31.4L18.1,30.9L17.9,30.5L17.8,29.6L18.2,29.3L18.0,28.3L18.6,27.9L19.2,27.3L20.3,27.1L21.0,27.9L22.1,28.6L22.2,29.2L22.5,29.9Z M-23.8,26.7L-23.4,26.7L-23.4,27.6L-23.7,27.9L-24.4,27.9L-24.5,27.4L-23.8,26.7Z M-24.3,22.6L-23.8,22.6L-23.2,22.7L-23.2,23.5L-23.7,23.8L-24.1,24.6L-25.6,24.4L-26.2,23.3L-26.1,22.8L-25.5,23.0L-24.3,22.6Z"/><path d="M73.5,91.6L73.0,91.9L72.9,92.9L72.4,93.0L71.4,92.9L71.0,93.4L69.8,93.9L69.5,93.8L69.9,93.7L70.3,92.8L69.8,92.4L69.1,91.7L69.0,91.0L69.2,90.9L70.7,91.3L71.1,91.0L71.1,90.3L70.1,89.7L69.9,89.2L70.4,88.2L70.8,87.8L72.0,87.8L72.2,87.3L71.8,86.9L70.8,86.6L70.0,86.6L69.9,86.1L70.3,85.4L70.7,84.5L71.3,84.0L72.2,84.0L72.0,84.9L72.2,85.2L72.6,85.2L73.4,84.6L73.7,83.9L73.5,82.8L74.2,83.0L75.1,82.7L75.8,81.9L77.6,81.6L78.5,81.9L78.7,82.5L79.0,83.0L78.9,83.4L79.0,83.8L78.9,84.2L79.3,84.6L79.5,85.6L79.2,86.4L78.1,87.3L78.3,87.9L77.4,88.4L77.8,89.4L77.7,90.1L77.5,90.4L77.0,90.5L76.3,90.9L75.9,91.0L75.6,90.3L75.8,90.0L74.8,89.9L73.9,90.5L73.5,91.6Z"/><path d="M93.3,102.2L92.3,102.5L92.1,103.7L91.7,104.2L92.0,104.7L91.4,105.7L91.2,106.5L90.6,106.7L90.5,107.3L89.0,107.5L88.6,108.1L88.8,108.8L88.6,109.1L87.9,109.1L87.2,108.9L87.2,108.4L86.8,108.4L86.6,108.8L87.3,109.2L87.5,110.0L88.0,110.3L87.6,110.6L86.4,109.5L86.1,110.2L85.5,110.6L85.1,110.7L84.7,111.1L84.3,109.8L83.5,109.5L83.3,109.7L81.3,109.7L81.7,110.5L81.7,111.1L81.3,111.7L80.6,111.5L80.7,110.9L80.3,110.5L80.9,110.3L81.2,109.9L81.0,109.1L81.5,108.9L81.2,108.2L80.5,107.8L80.3,107.4L81.5,107.4L82.1,107.1L82.5,106.6L82.2,106.0L82.6,105.7L83.6,105.6L85.5,105.1L85.8,103.9L86.8,103.7L87.0,103.2L87.4,103.4L87.8,103.0L88.4,102.8L88.8,101.7L89.3,101.2L90.0,101.5L90.4,101.3L90.7,100.5L91.1,100.7L92.3,100.5L92.7,101.2L92.6,101.8L93.3,102.2Z"/><path d="M28.7,35.5L29.3,34.6L29.6,34.0L30.0,34.4L30.8,34.8L31.4,34.7L32.1,34.2L32.1,33.7L32.4,32.8L33.3,32.3L34.0,33.1L34.2,33.0L34.1,32.4L34.4,31.8L34.8,31.5L35.0,31.1L35.9,31.4L36.7,31.2L37.0,31.4L36.9,32.6L37.3,32.7L37.6,33.9L37.2,34.6L37.2,35.3L39.0,34.7L39.2,35.3L39.2,35.7L38.8,35.7L38.2,36.8L38.7,37.1L38.3,37.8L37.6,38.2L37.1,38.3L36.3,39.2L35.9,39.2L35.5,38.8L35.5,38.4L34.9,38.4L34.7,38.1L33.7,38.9L33.1,39.0L32.7,38.6L32.1,39.1L31.2,37.3L30.5,37.8L30.1,37.8L29.9,37.3L30.2,36.3L30.1,35.9L28.8,35.6L28.7,35.5Z"/>
</g>
</svg>